<?xml version="1.0" encoding="UTF-8" standalone="no"?>
<!-- Created with Inkscape (http://www.inkscape.org/) -->

<svg
   width="480"
   height="320"
   viewBox="0 0 79.374995 52.916668"
   version="1.1"
   id="svg5"
   xml:space="preserve"
   inkscape:version="1.2.2 (b0a8486541, 2022-12-01)"
   sodipodi:docname="upload.svg"
   xmlns:inkscape="http://www.inkscape.org/namespaces/inkscape"
   xmlns:sodipodi="http://sodipodi.sourceforge.net/DTD/sodipodi-0.dtd"
   xmlns="http://www.w3.org/2000/svg"
   xmlns:svg="http://www.w3.org/2000/svg"><sodipodi:namedview
     id="namedview7"
     pagecolor="#ffffff"
     bordercolor="#666666"
     borderopacity="1.0"
     inkscape:showpageshadow="2"
     inkscape:pageopacity="0.0"
     inkscape:pagecheckerboard="0"
     inkscape:deskcolor="#d1d1d1"
     inkscape:document-units="mm"
     showgrid="false"
     inkscape:zoom="1.8474053"
     inkscape:cx="226.53394"
     inkscape:cy="153.45847"
     inkscape:window-width="1560"
     inkscape:window-height="842"
     inkscape:window-x="40"
     inkscape:window-y="30"
     inkscape:window-maximized="1"
     inkscape:current-layer="layer1" /><defs
     id="defs2" /><g
     inkscape:label="Ebene 1"
     inkscape:groupmode="layer"
     id="layer1"><rect
       style="fill:none;fill-opacity:1;stroke:#00d400;stroke-width:1.07501;stroke-linecap:round;stroke-linejoin:round;stroke-miterlimit:4.4;stroke-dasharray:none;stroke-opacity:1;paint-order:normal"
       id="rect1629"
       width="75.654167"
       height="49.195827"
       x="1.8604194"
       y="1.8604177"
       sodipodi:insensitive="true"
       inkscape:label="rect1629" /><text
       xml:space="preserve"
       style="font-style:normal;font-weight:normal;font-size:6.34594px;line-height:1.25;font-family:sans-serif;fill:#e16428;fill-opacity:1;stroke:none;stroke-width:0.158649"
       x="23.581511"
       y="45.394905"
       id="text6034"><tspan
         sodipodi:role="line"
         id="tspan6032"
         style="fill:#e16428;fill-opacity:1;stroke-width:0.158649"
         x="23.581511"
         y="45.394905">Hochladen</tspan></text><path
       d="m 27.299126,35.99478 c -5.595885,0 -10.135943,-4.540057 -10.135943,-10.135942 0,-4.420397 2.829618,-8.179142 6.771374,-9.565797 -0.0071,-0.190047 -0.01408,-0.380097 -0.01408,-0.570146 0,-6.2223412 5.039817,-11.2621577 11.262158,-11.2621577 4.174038,0 7.813123,2.2665094 9.762884,5.6451567 1.069905,-0.717962 2.365054,-1.1402931 3.751707,-1.1402931 3.73059,0 6.757295,3.0267051 6.757295,6.7572941 0,0.85874 -0.161893,1.675247 -0.450487,2.435442 4.110689,0.830584 7.207781,4.46967 7.207781,8.826717 0,4.976466 -4.03326,9.009726 -9.009726,9.009726 z m 5.560691,-15.274302 c -0.661653,0.661653 -0.661653,1.731558 0,2.38617 0.661651,0.654613 1.731556,0.661652 2.38617,0 l 2.74515,-2.745151 v 9.439096 c 0,0.936167 0.753157,1.689324 1.689324,1.689324 0.936167,0 1.689324,-0.753157 1.689324,-1.689324 v -9.439096 l 2.745151,2.745151 c 0.661652,0.661652 1.731556,0.661652 2.38617,0 0.654613,-0.661651 0.661652,-1.731557 0,-2.38617 l -5.631079,-5.631079 c -0.661651,-0.661652 -1.731557,-0.661652 -2.38617,0 l -5.631079,5.631079 z"
       id="path1817"
       style="stroke-width:0.070625;stroke-dasharray:none;fill:#00d400;fill-opacity:1" /></g></svg>
