<?xml version="1.0" encoding="UTF-8" standalone="no"?>
<!-- Created with Inkscape (http://www.inkscape.org/) -->

<svg
   version="1.1"
   id="svg90"
   width="3300"
   height="3300"
   viewBox="0 0 3300.0001 3300"
   sodipodi:docname="favicon.svg"
   inkscape:version="1.2.1 (9c6d41e410, 2022-07-14, custom)"
   xmlns:inkscape="http://www.inkscape.org/namespaces/inkscape"
   xmlns:sodipodi="http://sodipodi.sourceforge.net/DTD/sodipodi-0.dtd"
   xmlns="http://www.w3.org/2000/svg"
   xmlns:svg="http://www.w3.org/2000/svg">
  <defs
     id="defs94" />
  <sodipodi:namedview
     id="namedview92"
     pagecolor="#000000"
     bordercolor="#666666"
     borderopacity="1.0"
     inkscape:showpageshadow="2"
     inkscape:pageopacity="0"
     inkscape:pagecheckerboard="0"
     inkscape:deskcolor="#d1d1d1"
     showgrid="false"
     inkscape:zoom="0.26124924"
     inkscape:cx="1900.484"
     inkscape:cy="1230.6256"
     inkscape:window-width="1560"
     inkscape:window-height="842"
     inkscape:window-x="40"
     inkscape:window-y="30"
     inkscape:window-maximized="1"
     inkscape:current-layer="g96" />
  <g
     inkscape:groupmode="layer"
     inkscape:label="Image"
     id="g96">
    <path
       style="fill:#949494;stroke:#ffffff;stroke-width:30;stroke-opacity:1;fill-opacity:1;stroke-dasharray:none;paint-order:markers fill stroke;stroke-linejoin:bevel"
       d="m 1478.0899,3224.1077 c -21.8401,-2.2869 -46.6631,-9.1078 -61.6964,-16.9533 -12.7483,-6.6528 -22.0689,-17.1731 -30.2383,-34.1303 -12.2343,-25.3946 -12.5708,-42.2328 -1.2741,-63.7353 3.4633,-6.5924 9.8458,-13.858 28.5412,-32.4912 31.8017,-31.6953 45.8469,-49.5027 45.96,-58.2705 0.054,-4.2034 -3.1281,-9.2474 -7.2303,-11.461 -3.2411,-1.7486 -8.5706,-2.256 -26.074,-2.4816 -12.0999,-0.1558 -25,-0.9514 -28.6667,-1.768 -25.3207,-5.6381 -51.5255,-30.3681 -60.3719,-56.974 -3.1003,-9.3238 -3.4574,-12.478 -3.5164,-31.0449 -0.06,-19.006 0.2832,-22.0596 4.2746,-38 9.5733,-38.2323 16.5668,-52.6804 34.7702,-71.8323 9.8497,-10.3629 45.0801,-39.3073 58.1041,-47.7369 6.5596,-4.2457 23.6507,-13.8796 37.9796,-21.4085 15.7963,-8.3 28.0012,-15.6296 31.0026,-18.6187 11.0951,-11.0493 9.1762,-25.8278 -5.3853,-41.4753 -15.0679,-16.1919 -27.7438,-15.5761 -61.4924,2.9871 -15.0279,8.266 -33.7338,16.7793 -42.6984,19.4326 -1.8333,0.5427 -14.1333,5.1911 -27.3332,10.3296 -26.0016,10.122 -52.4865,17.3424 -83.9999,22.9004 -30.1924,5.3251 -56.7335,10.8197 -90.6669,18.7704 -34.7661,8.1459 -42.317,9.4419 -61.9998,10.6413 -17.575,1.0711 -26.6396,3.5644 -32.8855,9.0458 -2.6936,2.3638 -9.8424,10.8978 -15.8861,18.9645 -26.393,35.2263 -39.6888,50.0545 -52.5617,58.6199 -11.9608,7.9582 -21.5016,11.6981 -49.69613,19.4802 -13.36715,3.6895 -36.08527,10.2691 -50.48467,14.6212 -40.5992,12.2708 -41.45204,12.428 -67.1526,12.3786 -34.57243,-0.067 -68.0122,-3.9718 -85.45511,-9.9796 -15.56942,-5.3626 -25.98364,-15.9156 -30.71105,-31.1203 -1.14002,-3.6667 -2.39791,-13.6327 -2.7953,-22.1468 -0.92635,-19.8464 1.50796,-31.3879 10.32726,-48.9629 20.59343,-41.0387 45.91458,-65.9268 84.87398,-83.4227 29.12639,-13.08 44.46309,-22.0878 62.21299,-36.5404 8.3714,-6.8162 29.57443,-30.738 53.96098,-60.8798 23.30066,-28.7999 28.74045,-44.4916 30.9851,-89.3808 0.69673,-13.9334 2.10717,-29.2334 3.13433,-34 2.02969,-9.419 9.90998,-37.2266 18.32582,-64.6667 5.565,-18.1449 17.0356,-73.4264 20.4631,-98.6209 3.7098,-27.2695 4.4864,-58.1584 3.3034,-131.3791 -1.4928,-92.3811 -3.7378,-115.2148 -16.1232,-164 -8.1374,-32.0513 -12.64673,-46.0561 -21.92643,-68.0972 -10.0909,-23.9679 -11.8695,-28.8205 -18.04607,-49.2361 -2.99517,-9.9 -9.52699,-28.8 -14.51516,-42 -16.06411,-42.5099 -18.65861,-54.484 -22.01027,-101.5826 -3.353,-47.1172 -5.91416,-70.2386 -10.68018,-96.4174 -7.6545,-42.0446 -7.78672,-43.9722 -6.76752,-98.6667 0.9881,-53.0263 1.05628,-53.6926 9.34534,-91.3334 7.2617,-32.9756 10.60319,-44.2326 18.7657,-63.219 7.83417,-18.2227 31.52728,-86.9922 34.64482,-100.557 1.03955,-4.5232 3.44252,-17.524 5.33995,-28.8906 1.89739,-11.3667 6.08649,-30.8667 9.30909,-43.3334 3.22261,-12.4666 8.32293,-33.5908 11.33403,-46.9425 5.4499,-24.1653 19.1901,-73.6902 23.9686,-86.3908 1.3795,-3.6667 5.6027,-13.5667 9.3849,-22 3.7823,-8.4333 10.3983,-25.9238 14.702,-38.8677 9.6907,-29.1453 16.6778,-43.10667 37.1295,-74.19229 8.8267,-13.41644 17.5312,-27.51644 19.3431,-31.33334 1.8118,-3.817 6.8692,-14.44001 11.2388,-23.60671 4.7469,-9.9586 14.279,-26.0579 23.683,-40 20.654,-30.62137 40.0039,-62.88034 51.5854,-85.99994 11.3943,-22.74618 15.2229,-28.81047 30.6429,-48.53762 14.1139,-18.05646 24.9786,-34.09058 43.0018,-63.46239 20.7776,-33.86046 94.9328,-141.32098 117.039,-169.605 19.9349,-25.5057 40.3485,-55.51283 46.5281,-68.39502 3.6938,-7.7 9.0722,-18.92056 11.9522,-24.93455 5.1972,-10.85347 17.843,-28.49078 45.2173,-63.06541 7.8383,-9.9 18.6179,-24.20572 23.9546,-31.7905 12.9464,-18.39989 21.0168,-26.89193 43.9997,-46.29911 10.6333,-8.97888 33.1335,-30.22782 50.0001,-47.21986 16.8666,-16.99203 37.8667,-37.06392 46.6668,-44.6042 8.8,-7.54027 34.8447,-33.29258 57.8771,-57.22736 40.9593,-42.564125 48.7534,-49.511615 59.3156,-52.873565 7.7918,-2.480078 20.8161,-1.01488 27.9045,3.13916 18.3925,10.77867 26.2368,32.252635 26.2352,71.819215 0,22.34703 -3.0416,80.96289 -5.3592,103.3128 -1.3802,13.31171 -0.7358,21.49248 2.1441,27.21216 2.7117,5.38608 10.3287,11.36009 17.4275,13.66845 6.5322,2.12407 61.4024,13.29787 72.455,14.75475 19.2544,2.53797 41.2822,-8.45409 77.3323,-38.58953 19.0029,-15.88496 29.1511,-21.09376 41.3344,-21.21568 16.6647,-0.16678 27.3828,10.4561 30.7661,30.49262 1.8619,11.02588 0.8363,33.66963 -2.1881,48.31195 -2.173,10.51925 -10.4276,35.40796 -19.136,57.69641 -6.9523,17.79373 -9.8497,31.5855 -8.6835,41.33332 0.4877,4.07675 5.0472,20.31227 10.1323,36.07893 17.0817,52.96409 18.7864,63.39271 15.8137,96.7506 -1.3705,15.38034 -1.3826,23.4364 -0.061,40.86956 1.5211,20.06891 1.4328,23.33867 -1.1653,43.17816 -4.8568,37.08594 -3.2591,58.22216 6.6418,87.86837 5.8947,17.6506 13.178,32.19004 21.6584,43.23595 11.08,14.43189 37.609,34.03981 76.8888,56.8294 9.9,5.74386 23.0999,13.39975 29.3332,17.01311 13.6037,7.88577 41.9786,22.18682 62.0599,31.27842 29.8296,13.5049 52.8063,28.7384 71.86,47.6431 19.7667,19.61191 25.2861,34.13471 20.2691,53.33335 -3.5518,13.59274 -19.1357,51.07209 -25.6981,61.80429 -3.4289,5.6076 -11.019,18.2957 -16.867,28.1957 -13.8182,23.3923 -16.7882,27.6238 -25.1063,35.769 -8.6183,8.4391 -19.8285,14.3929 -41.7266,22.1611 -23.0136,8.1639 -29.6432,11.9563 -46.791,26.766 -17.4151,15.0406 -32.8673,23.4023 -49.3333,26.696 -5.8667,1.1735 -22.6668,2.6557 -37.3333,3.2937 -20.6342,0.8977 -31.4438,2.0825 -47.7835,5.2373 -11.6142,2.2424 -28.7141,5.0063 -37.9999,6.142 -30.812,3.7684 -41.605,7.5555 -51.7438,18.156 -9.3458,9.7713 -12.2849,17.8214 -15.9111,43.58 -5.0119,35.6017 -2.7882,159.6433 3.2817,183.0586 3.1501,12.1522 20.8298,56.1251 28.5829,71.0916 3.0251,5.8399 9.0556,15.413 13.4008,21.2735 10.2246,13.7897 36.0128,39.2452 50.0882,49.4419 37.0633,26.8497 49.5892,36.9652 69.6129,56.2164 12.0804,11.6143 24.6286,24.1812 27.8848,27.9265 13.8782,15.9627 37.3895,45.9336 47.6591,60.7535 12.2732,17.7109 58.0484,79.4124 69.2553,93.3509 10.0139,12.4544 17.9484,26.9006 25.731,46.8468 8.4512,21.6606 13.8437,32.4115 25.868,51.5726 5.2922,8.4333 12.2273,20.1333 15.411,26 7.9526,14.6533 15.0504,24.9674 20.114,29.2281 7.429,6.2511 16.0819,9.738 46.3983,18.6977 37.3015,11.024 48.5603,15.3808 60.6605,23.474 10.2631,6.8644 26.7852,23.2196 33.8936,33.5514 6.6924,9.7272 27.3862,47.4161 33.5467,61.0978 18.2247,40.475 21.3548,52.339 22.3299,84.6404 1.1529,38.1944 -4.2285,62.7204 -17.4016,79.3106 -8.0115,10.0896 -17.752,15.5262 -38.4102,21.439 -9.6857,2.7722 -19.4437,6.4647 -22.2819,8.4315 -9.128,6.3257 -12.563,16.0205 -14.2191,40.1295 -0.4535,6.6 -2.2376,27.3 -3.9647,46 -1.7272,18.7 -3.5184,41.5 -3.9803,50.6666 -1.3233,26.2494 -3.1941,38.9684 -9.4137,64 -3.1888,12.8334 -7.286,32.3427 -9.1051,43.354 -1.819,11.0115 -4.6259,23.6115 -6.2371,28 -1.6115,4.3887 -9.2835,20.1307 -17.0486,34.9823 -12.1287,23.1969 -17.0219,30.8855 -34.7174,54.55 -16.4863,22.0471 -24.9034,31.8297 -42.1573,48.9972 -21.4216,21.314 -26.6339,27.585 -49.3445,59.3658 -6.5172,9.1206 -15.6797,20.6427 -20.3609,25.605 -8.7682,9.2948 -41.1645,37.0893 -52.9713,45.447 -15.9695,11.3044 -33.3567,17.0508 -61.4661,20.315 -30.7816,3.5742 -37.6217,4.7162 -60.534,10.1069 -24.5153,5.7677 -35.8696,7.3029 -68.0318,9.1981 -15.8806,0.9359 -29.6546,2.7759 -49.3333,6.5906 -15.0159,2.9108 -33.3015,6.4481 -40.635,7.8606 -7.3332,1.4127 -22.6331,5.0115 -33.9999,7.9972 -12.4039,3.2584 -28.1297,6.289 -39.3332,7.58 -38.4129,4.427 -47.566,5.9614 -54.4576,9.1298 -9.6397,4.4317 -14.4571,8.91 -19.2045,17.8521 -2.2586,4.2544 -18.605,51.2352 -36.3254,104.4019 -20.9786,62.9424 -33.896,99.6902 -37.0263,105.3333 -2.8116,5.0693 -9.0955,12.9083 -15.1383,18.8855 -12.7136,12.5753 -28.842,21.1362 -54.956,29.1709 -9.6574,2.9712 -31.3587,9.8795 -48.2253,15.3515 -16.8666,5.4721 -34.8666,10.8597 -39.9999,11.9725 -11.3273,2.4556 -48.9181,3.5775 -64.655,1.9297 z M 1224.948,2550.8438 c 10.0115,-2.2216 31.3115,-5.5711 47.3332,-7.4432 16.0216,-1.8722 34.2302,-4.5944 40.4635,-6.0494 15.8504,-3.6997 62.129,-18.9004 70.7955,-23.2536 17.2548,-8.6669 32.6936,-22.6585 39.6204,-35.9066 2.8886,-5.5252 3.5175,-8.5131 3.5197,-16.7268 0,-12.0499 -1.1047,-14.4306 -18.616,-40 -6.7799,-9.9 -18.4841,-28.8 -26.0092,-42 -30.1822,-52.9432 -50.6673,-76.6667 -66.2018,-76.6667 -4.7525,0 -6.7055,0.8473 -11.0973,4.8152 -9.9622,9.0001 -23.3043,32.8701 -47.4023,84.8057 -13.8499,29.8488 -32.5303,61.1939 -47.2114,79.2188 -16.2584,19.9616 -23.5171,30.6203 -27.3788,40.2034 -4.1927,10.4048 -6.7373,24.7286 -5.5323,31.1408 1.0081,5.3633 6.1357,11.3052 10.6161,12.3022 5.4418,1.211 18.8846,-0.3977 37.1007,-4.4398 z"
       id="path258"
       sodipodi:nodetypes="sssssssscsssssssssssssssssssssssssssssssssssssssssssssssssssssssssssssssssscsssssssssssssssssssssssssssssssssssssssssssssssssssssssssssssssssssssssssssssssssssssscssssssssss" />
  </g>
</svg>
