<?xml version="1.0" encoding="UTF-8" standalone="no"?>
<!-- Created with Inkscape (http://www.inkscape.org/) -->

<svg
   width="300"
   height="200"
   viewBox="0 0 79.374995 52.916668"
   version="1.1"
   id="svg5"
   xml:space="preserve"
   inkscape:version="1.2.1 (9c6d41e410, 2022-07-14, custom)"
   sodipodi:docname="404Picture.svg"
   xmlns:inkscape="http://www.inkscape.org/namespaces/inkscape"
   xmlns:sodipodi="http://sodipodi.sourceforge.net/DTD/sodipodi-0.dtd"
   xmlns="http://www.w3.org/2000/svg"
   xmlns:svg="http://www.w3.org/2000/svg"><sodipodi:namedview
     id="namedview7"
     pagecolor="#ffffff"
     bordercolor="#666666"
     borderopacity="1.0"
     inkscape:showpageshadow="2"
     inkscape:pageopacity="0.0"
     inkscape:pagecheckerboard="0"
     inkscape:deskcolor="#d1d1d1"
     inkscape:document-units="mm"
     showgrid="false"
     inkscape:zoom="3.195"
     inkscape:cx="152.26917"
     inkscape:cy="100.31299"
     inkscape:window-width="1560"
     inkscape:window-height="842"
     inkscape:window-x="40"
     inkscape:window-y="30"
     inkscape:window-maximized="1"
     inkscape:current-layer="layer1" /><defs
     id="defs2" /><g
     inkscape:label="Ebene 1"
     inkscape:groupmode="layer"
     id="layer1"><path
       style="fill:#e16428;fill-opacity:1;stroke:#311414;stroke-width:0.40447;stroke-linejoin:bevel;stroke-dasharray:none;stroke-opacity:1;paint-order:markers fill stroke"
       d="m 38.042835,37.015845 c -0.22085,-0.0231 -0.47185,-0.0921 -0.62386,-0.17143 -0.12891,-0.0673 -0.22316,-0.17365 -0.30577,-0.34512 -0.12371,-0.25678 -0.12711,-0.42705 -0.0129,-0.64448 0.035,-0.0667 0.0996,-0.14013 0.2886,-0.32854 0.32157,-0.3205 0.4636,-0.50056 0.46474,-0.58922 5.5e-4,-0.0425 -0.0316,-0.0935 -0.0731,-0.11589 -0.0328,-0.0177 -0.0867,-0.0228 -0.26366,-0.0251 -0.12235,-0.002 -0.25279,-0.01 -0.28987,-0.0179 -0.25603,-0.057 -0.52101,-0.30708 -0.61046,-0.57611 -0.0314,-0.0943 -0.035,-0.12617 -0.0356,-0.31392 -6.1e-4,-0.19218 0.003,-0.22306 0.0432,-0.38424 0.0968,-0.3866 0.16752,-0.5327 0.35159,-0.72636 0.0996,-0.10478 0.45584,-0.39746 0.58754,-0.4827 0.0663,-0.0429 0.23915,-0.14035 0.38404,-0.21648 0.15973,-0.0839 0.28314,-0.15804 0.31349,-0.18827 0.11219,-0.11173 0.0928,-0.26116 -0.0545,-0.41939 -0.15236,-0.16373 -0.28053,-0.1575 -0.62179,0.0302 -0.15196,0.0836 -0.34111,0.16967 -0.43176,0.1965 -0.0185,0.005 -0.14291,0.0525 -0.27639,0.10445 -0.26292,0.10235 -0.53073,0.17536 -0.84938,0.23156 -0.3053,0.0539 -0.57368,0.10941 -0.91681,0.1898 -0.35154,0.0824 -0.4279,0.0955 -0.62693,0.10761 -0.17771,0.0108 -0.26937,0.036 -0.33253,0.0915 -0.0272,0.0239 -0.0995,0.1102 -0.16063,0.19177 -0.26688,0.3562 -0.40133,0.50614 -0.53149,0.59275 -0.12095,0.0805 -0.21742,0.11829 -0.50252,0.19698 -0.13517,0.0373 -0.36489,0.10384 -0.51049,0.14785 -0.41053,0.12408 -0.41915,0.12567 -0.67903,0.12517 -0.34959,-6.8e-4 -0.68773,-0.0402 -0.8641,-0.10092 -0.15744,-0.0542 -0.26275,-0.16093 -0.31055,-0.31468 -0.0115,-0.0371 -0.0242,-0.13785 -0.0283,-0.22394 -0.009,-0.20068 0.0152,-0.31739 0.10442,-0.4951 0.20824,-0.41498 0.46428,-0.66664 0.85823,-0.84355 0.29452,-0.13227 0.4496,-0.22335 0.62908,-0.36949 0.0847,-0.0689 0.29905,-0.31082 0.54564,-0.6156 0.23562,-0.29122 0.29062,-0.44989 0.31332,-0.9038 0.007,-0.14089 0.0213,-0.2956 0.0317,-0.3438 0.0205,-0.0953 0.10021,-0.37643 0.18531,-0.6539 0.0563,-0.18348 0.17226,-0.74247 0.20692,-0.99723 0.0375,-0.27574 0.0454,-0.58808 0.0334,-1.32848 -0.0151,-0.93413 -0.0378,-1.16502 -0.16303,-1.65833 -0.0823,-0.32409 -0.12788,-0.46571 -0.22172,-0.68858 -0.10204,-0.24236 -0.12002,-0.29143 -0.18248,-0.49786 -0.0303,-0.10011 -0.0963,-0.29122 -0.14677,-0.4247 -0.16244,-0.42985 -0.18867,-0.55093 -0.22256,-1.02718 -0.0339,-0.47644 -0.0598,-0.71024 -0.108,-0.97495 -0.0774,-0.42515 -0.0787,-0.44464 -0.0684,-0.9977 0.01,-0.53618 0.0107,-0.54292 0.0945,-0.92354 0.0734,-0.33344 0.10721,-0.44727 0.18975,-0.63925 0.0792,-0.18427 0.3188,-0.87965 0.35032,-1.01681 0.0105,-0.0457 0.0348,-0.1772 0.054,-0.29214 0.0192,-0.11494 0.0615,-0.31212 0.0941,-0.43818 0.0326,-0.12606 0.0842,-0.33966 0.11461,-0.47467 0.0551,-0.24435 0.19404,-0.74514 0.24236,-0.87356 0.0139,-0.0371 0.0567,-0.13719 0.0949,-0.22246 0.0383,-0.0853 0.10515,-0.26214 0.14866,-0.39302 0.098,-0.29471 0.16865,-0.43589 0.37545,-0.75022 0.0892,-0.13566 0.17727,-0.27824 0.19559,-0.31683 0.0183,-0.0386 0.0695,-0.14602 0.11365,-0.23871 0.048,-0.1007 0.14438,-0.26349 0.23947,-0.40447 0.20885,-0.30964 0.40451,-0.63583 0.52162,-0.86961 0.11522,-0.23001 0.15393,-0.29133 0.30986,-0.4908 0.14271,-0.18259 0.25257,-0.34472 0.43482,-0.64172 0.2101,-0.34239 0.95994,-1.4290095 1.18347,-1.7150095 0.20158,-0.25791 0.408,-0.56133 0.47048,-0.69159 0.0374,-0.0779 0.0917,-0.19132 0.12086,-0.25214 0.0526,-0.10974 0.18043,-0.28809 0.45723,-0.6377 0.0793,-0.10011 0.18826,-0.24476 0.24222,-0.32146 0.13091,-0.18605 0.21252,-0.27192 0.44492,-0.46816 0.10752,-0.0908 0.33504,-0.30566 0.50559,-0.47748 0.17055,-0.17182 0.3829,-0.37478 0.47188,-0.45103 0.089,-0.0762 0.35234,-0.33664 0.58524,-0.57867 0.41417,-0.4304 0.49299,-0.50065 0.59979,-0.53464 0.0788,-0.0251 0.21049,-0.0103 0.28216,0.0317 0.18598,0.10899 0.2653,0.32613 0.26529,0.72622 0,0.22597 -0.0308,0.81868 -0.0542,1.04468 -0.014,0.1346 -0.007,0.21732 0.0217,0.27516 0.0274,0.0545 0.10444,0.11487 0.17622,0.13821 0.066,0.0215 0.62089,0.13447 0.73265,0.1492 0.19469,0.0257 0.41743,-0.0855 0.78196,-0.39021 0.19216,-0.16063 0.29477,-0.2133 0.41797,-0.21453 0.16851,-0.002 0.27689,0.10573 0.3111,0.30833 0.0188,0.1115 0.008,0.34046 -0.0221,0.48852 -0.022,0.10637 -0.10544,0.35804 -0.1935,0.58342 -0.0703,0.17992 -0.0996,0.31938 -0.0878,0.41795 0.005,0.0412 0.051,0.20539 0.10245,0.36482 0.17273,0.53556 0.18997,0.64101 0.15991,0.9783195 -0.0139,0.15552 -0.014,0.23699 -6.2e-4,0.41327 0.0154,0.20293 0.0145,0.23599 -0.0118,0.4366 -0.0491,0.37501 -0.033,0.58873 0.0672,0.88851 0.0596,0.17848 0.13325,0.3255 0.219,0.43719 0.11204,0.14593 0.3803,0.3442 0.77749,0.57465 0.1001,0.0581 0.23358,0.13549 0.29661,0.17203 0.13755,0.0797 0.42448,0.22435 0.62753,0.31628 0.30163,0.13656 0.53397,0.2906 0.72663,0.48176 0.19988,0.19831 0.25569,0.34516 0.20496,0.53929 -0.0359,0.13745 -0.19349,0.51643 -0.25985,0.62495 -0.0347,0.0567 -0.11142,0.185 -0.17056,0.28511 -0.13972,0.23654 -0.16976,0.27933 -0.25387,0.36169 -0.0871,0.0853 -0.2005,0.14554 -0.42193,0.22409 -0.2327,0.0825 -0.29974,0.1209 -0.47314,0.27065 -0.17609,0.15208 -0.33234,0.23664 -0.49884,0.26994 -0.0593,0.0119 -0.2292,0.0269 -0.37751,0.0333 -0.20865,0.009 -0.31795,0.0211 -0.48317,0.053 -0.11745,0.0227 -0.29036,0.0506 -0.38425,0.0621 -0.31157,0.0381 -0.4207,0.0764 -0.52322,0.18359 -0.0945,0.0988 -0.12422,0.18021 -0.16089,0.44067 -0.0507,0.36 -0.0282,1.61428 0.0332,1.85105 0.0318,0.12288 0.21063,0.56752 0.28903,0.71886 0.0306,0.0591 0.0916,0.15585 0.1355,0.21511 0.10339,0.13944 0.36415,0.39684 0.50648,0.49995 0.37478,0.2715 0.50144,0.37378 0.70391,0.56845 0.12216,0.11744 0.24904,0.24451 0.28197,0.28238 0.14033,0.16141 0.37807,0.46447 0.48191,0.61433 0.12411,0.17909 0.58698,0.803 0.7003,0.94394 0.10126,0.12594 0.18149,0.27201 0.26018,0.47371 0.0855,0.21902 0.13999,0.32773 0.26158,0.52149 0.0535,0.0853 0.12363,0.20358 0.15583,0.2629 0.0804,0.14817 0.15218,0.25247 0.20339,0.29555 0.0751,0.0632 0.16261,0.0985 0.46917,0.18907 0.37718,0.11147 0.49103,0.15552 0.61338,0.23736 0.10378,0.0694 0.27085,0.23479 0.34272,0.33927 0.0677,0.0983 0.27693,0.47946 0.33922,0.6178 0.18429,0.40928 0.21594,0.52924 0.2258,0.85587 0.0117,0.38621 -0.0428,0.63421 -0.17596,0.80197 -0.081,0.10202 -0.17951,0.157 -0.3884,0.21678 -0.0979,0.028 -0.19661,0.0654 -0.22531,0.0853 -0.0923,0.064 -0.12703,0.162 -0.14378,0.40578 -0.005,0.0667 -0.0226,0.27605 -0.0401,0.46514 -0.0175,0.18909 -0.0356,0.41964 -0.0403,0.51233 -0.0134,0.26543 -0.0323,0.39404 -0.0952,0.64716 -0.0322,0.12976 -0.0737,0.32704 -0.0921,0.43838 -0.0184,0.11135 -0.0468,0.23876 -0.0631,0.28313 -0.0163,0.0444 -0.0939,0.20356 -0.1724,0.35373 -0.12264,0.23457 -0.17212,0.31231 -0.35105,0.5516 -0.16671,0.22294 -0.25182,0.32186 -0.42628,0.49545 -0.21662,0.21552 -0.26932,0.27893 -0.49897,0.60029 -0.0659,0.0922 -0.15854,0.20874 -0.20588,0.25892 -0.0887,0.094 -0.41625,0.37503 -0.53563,0.45955 -0.16148,0.1143 -0.3373,0.17241 -0.62154,0.20542 -0.31125,0.0361 -0.38042,0.0477 -0.6121,0.10219 -0.24789,0.0583 -0.36271,0.0738 -0.68792,0.093 -0.16058,0.009 -0.29986,0.0281 -0.49885,0.0667 -0.15184,0.0294 -0.33674,0.0652 -0.41089,0.0795 -0.0742,0.0143 -0.22886,0.0507 -0.3438,0.0809 -0.12543,0.0329 -0.28444,0.0636 -0.39773,0.0766 -0.38842,0.0448 -0.48098,0.0603 -0.55066,0.0923 -0.0975,0.0448 -0.14619,0.0901 -0.19419,0.18052 -0.0228,0.043 -0.18813,0.51808 -0.36732,1.05569 -0.21213,0.63646 -0.34275,1.00804 -0.3744,1.0651 -0.0284,0.0513 -0.092,0.13053 -0.15308,0.19097 -0.12855,0.12716 -0.29164,0.21372 -0.5557,0.29497 -0.0976,0.03 -0.31709,0.0999 -0.48764,0.15523 -0.17055,0.0553 -0.35256,0.10981 -0.40447,0.12106 -0.11454,0.0248 -0.49465,0.0362 -0.65378,0.0195 z m -2.55972,-6.8079 c 0.10124,-0.0225 0.31662,-0.0563 0.47863,-0.0753 0.162,-0.0189 0.34612,-0.0465 0.40915,-0.0612 0.16028,-0.0374 0.62824,-0.19112 0.71587,-0.23513 0.17448,-0.0876 0.33059,-0.22912 0.40063,-0.36308 0.0292,-0.0559 0.0356,-0.0861 0.0356,-0.16914 0,-0.12185 -0.0112,-0.14592 -0.18824,-0.40447 -0.0685,-0.10011 -0.1869,-0.29122 -0.263,-0.4247 -0.30519,-0.53535 -0.51233,-0.77523 -0.66941,-0.77523 -0.0481,0 -0.0678,0.009 -0.11222,0.0487 -0.10073,0.091 -0.23564,0.33237 -0.47932,0.85753 -0.14004,0.30183 -0.32894,0.61878 -0.47739,0.80105 -0.1644,0.20184 -0.2378,0.30962 -0.27685,0.40652 -0.0424,0.10521 -0.0681,0.25005 -0.0559,0.31489 0.0102,0.0542 0.062,0.11432 0.10735,0.1244 0.055,0.0122 0.19096,-0.004 0.37515,-0.0449 z"
       id="path258"
       sodipodi:nodetypes="sssssssscsssssssssssssssssssssssssssssssssssssssssssssssssssssssssssssssssscsssssssssssssssssssssssssssssssssssssssssssssssssssssssssssssssssssssssssssssssssssssscssssssssss" /><rect
       style="fill:none;fill-opacity:1;stroke:#e16428;stroke-width:1.07501;stroke-linecap:round;stroke-linejoin:round;stroke-miterlimit:4.4;stroke-dasharray:none;stroke-opacity:1;paint-order:normal"
       id="rect1629"
       width="75.654167"
       height="49.195827"
       x="1.8604194"
       y="1.8604177"
       sodipodi:insensitive="true" /><text
       xml:space="preserve"
       style="font-style:normal;font-weight:normal;font-size:6.34594px;line-height:1.25;font-family:sans-serif;fill:#b3b3b3;fill-opacity:1;stroke:none;stroke-width:0.158649"
       x="8.6209507"
       y="45.394905"
       id="text6034"><tspan
         sodipodi:role="line"
         id="tspan6032"
         style="stroke-width:0.158649;fill:#b3b3b3"
         x="8.6209507"
         y="45.394905">404 - Nicht gefunden</tspan></text></g></svg>
